<?xml version="1.0" standalone="no"?>
<!DOCTYPE svg PUBLIC "-//W3C//DTD SVG 20010904//EN"
 "http://www.w3.org/TR/2001/REC-SVG-20010904/DTD/svg10.dtd">
<svg version="1.0" xmlns="http://www.w3.org/2000/svg"
 width="402.000000pt" height="402.000000pt" viewBox="0 0 402.000000 402.000000"
 preserveAspectRatio="xMidYMid meet">

<g transform="translate(0.000000,402.000000) scale(0.100000,-0.100000)"
fill="#000000" stroke="none">
<path d="M0 3481 c0 -384 3 -542 11 -547 8 -5 8 -8 0 -13 -8 -5 -11 -77 -9
-243 l3 -236 35 15 c19 9 41 17 48 19 8 1 19 9 25 18 7 8 30 21 52 28 l40 13
-4 74 c-2 40 -11 96 -21 124 -10 29 -16 55 -14 59 11 18 45 7 54 -17 11 -30
28 -25 55 15 11 17 23 30 27 30 4 0 16 7 25 15 10 8 26 20 35 27 16 11 16 18
7 53 -9 30 -8 59 1 120 13 81 21 101 53 139 192 228 304 342 349 354 21 6 45
17 54 26 14 14 29 17 109 20 11 1 35 12 53 24 27 20 42 23 93 20 53 -3 62 0
78 20 16 22 20 23 59 12 23 -6 68 -8 100 -6 74 7 192 25 202 31 14 9 312 -12
318 -22 4 -6 23 -14 42 -18 19 -4 55 -20 79 -36 70 -45 119 -39 150 19 11 21
10 24 -8 29 -25 6 -28 28 -5 37 9 4 14 9 10 13 -6 7 52 37 66 35 7 -2 150 44
183 58 11 5 37 13 58 19 20 6 52 16 70 21 42 13 137 13 137 1 0 -15 -18 -23
-74 -31 l-51 -8 45 -1 c36 -1 41 -4 28 -12 -12 -6 -18 -22 -18 -44 0 -19 -4
-36 -8 -39 -20 -12 9 -96 33 -96 4 0 18 -8 31 -19 13 -10 43 -22 67 -25 40 -6
43 -9 40 -34 -3 -19 4 -35 23 -55 27 -29 55 -126 68 -235 6 -46 4 -55 -17 -76
-14 -14 -27 -40 -31 -60 -6 -31 -11 -36 -35 -36 -16 0 -34 7 -41 15 -7 8 -19
15 -26 15 -8 0 -14 10 -14 24 0 15 -7 26 -20 29 -11 3 -24 17 -30 31 -7 18
-16 25 -31 23 -17 -1 -27 8 -43 38 -29 54 -72 91 -130 110 -69 23 -373 30
-430 10 -23 -8 -61 -15 -84 -15 -47 0 -152 -27 -152 -38 0 -4 -28 -18 -62 -32
-37 -14 -78 -40 -99 -62 -20 -20 -39 -35 -42 -31 -3 3 -9 -6 -13 -21 -3 -14
-13 -26 -20 -26 -8 0 -18 -8 -21 -17 -4 -10 -15 -27 -25 -37 -10 -11 -18 -31
-18 -44 0 -23 3 -24 45 -19 53 5 52 5 57 37 3 28 19 38 63 40 17 0 39 7 49 15
11 8 28 15 38 15 25 0 80 35 70 45 -4 4 1 5 10 2 10 -3 33 0 52 8 20 8 53 15
74 15 21 0 43 5 49 11 11 11 74 9 238 -6 93 -9 105 -13 105 -35 0 -19 12 -24
48 -23 7 1 20 -17 29 -38 10 -27 21 -39 35 -39 18 0 19 -5 13 -40 l-7 -40 66
0 c37 0 66 -4 66 -10 0 -5 7 -10 15 -10 8 0 15 5 15 10 0 17 87 12 94 -5 3 -8
12 -15 21 -15 22 0 18 -17 -5 -23 -12 -3 -20 -14 -20 -26 0 -18 -6 -21 -40
-21 -22 0 -40 5 -40 10 0 6 -54 10 -142 10 l-143 -1 -17 -36 c-14 -29 -15 -39
-5 -46 8 -6 6 -7 -5 -3 -23 7 -87 -34 -88 -56 0 -11 -8 -18 -21 -18 -24 0 -58
-37 -59 -62 0 -10 -7 -18 -15 -18 -11 0 -14 -7 -9 -24 4 -17 -2 -31 -19 -50
-13 -14 -29 -26 -34 -26 -40 0 -243 -168 -243 -201 0 -9 -7 -22 -15 -29 -11
-9 -12 -17 -4 -31 5 -11 7 -24 3 -30 -3 -6 2 -9 12 -7 21 3 21 -1 9 -49 -4
-18 -14 -33 -21 -33 -8 0 -19 -11 -25 -24 -6 -13 -27 -32 -45 -42 -24 -13 -37
-29 -44 -54 -10 -36 -44 -60 -83 -60 -10 0 -21 -8 -24 -19 -5 -19 -42 -41 -68
-41 -8 0 -15 -9 -15 -20 0 -11 -7 -20 -15 -20 -9 0 -21 -12 -27 -26 -8 -17
-18 -24 -29 -21 -41 11 -78 -112 -41 -132 19 -10 58 -8 68 2 11 11 44 8 44 -4
0 -6 5 -7 13 -2 6 4 19 8 27 8 8 0 16 11 18 25 6 51 32 70 102 76 36 3 70 11
75 17 6 7 33 12 62 13 28 0 58 5 65 11 19 15 126 25 148 13 22 -12 16 -46 -11
-63 -11 -7 -19 -17 -19 -24 0 -6 -9 -15 -20 -18 -11 -3 -25 -15 -30 -25 -6
-11 -26 -27 -45 -35 -20 -10 -35 -25 -37 -38 -3 -19 -11 -22 -52 -25 -27 -2
-60 -11 -74 -20 -15 -9 -27 -16 -29 -14 -22 18 -87 -28 -128 -90 -10 -16 -26
-28 -39 -28 -12 0 -27 -9 -34 -20 -12 -20 -52 -28 -52 -10 0 6 -22 10 -49 10
-31 0 -51 5 -54 13 -6 19 -77 -18 -77 -41 0 -10 -12 -25 -26 -33 -28 -15 -81
-112 -64 -117 20 -7 9 -33 -25 -64 -20 -17 -33 -33 -31 -36 7 -6 -13 -23 -54
-46 -23 -14 -35 -16 -38 -8 -2 7 -19 12 -37 12 -36 0 -102 49 -77 57 20 8 14
19 -27 46 -21 14 -53 41 -70 59 -24 25 -31 29 -31 16 0 -14 -9 -18 -40 -18
-37 0 -40 2 -40 28 0 26 -5 32 -80 91 -21 16 -27 33 -35 100 -7 52 -7 81 -1
81 5 0 -1 11 -14 25 -12 13 -26 23 -30 22 -9 -2 -80 89 -80 103 0 6 9 10 20
10 24 0 24 -2 3 46 l-18 39 -3 -42 c-4 -51 -22 -56 -57 -15 -20 22 -24 24 -25
10 0 -15 -10 -18 -63 -18 -50 0 -64 -4 -74 -19 -15 -24 -68 -51 -100 -51 -18
0 -23 -5 -23 -24 0 -42 -18 -76 -40 -76 -20 0 -20 -4 -20 -709 l0 -710 28 -15
c15 -8 46 -24 69 -35 24 -11 43 -25 43 -30 0 -6 12 -14 28 -17 15 -4 38 -15
52 -24 40 -26 63 -39 90 -52 24 -12 22 -13 -25 -16 -45 -3 -52 0 -72 25 -12
15 -30 28 -40 29 -45 2 -52 5 -58 24 -5 15 -15 20 -41 20 -28 0 -38 6 -54 33
l-20 32 0 -57 c0 -32 4 -58 10 -58 6 0 10 6 10 14 0 19 21 26 43 14 23 -12 13
-28 -17 -28 -25 0 -51 -22 -39 -33 10 -11 111 -8 118 3 9 15 47 12 43 -2 -3
-9 -32 -14 -86 -16 -45 -2 -82 -7 -82 -12 0 -7 733 -10 2010 -10 l2010 0 0 40
c0 22 -4 40 -10 40 -5 0 -10 9 -10 20 0 11 5 20 10 20 6 0 10 74 10 201 l0
201 -47 44 c-27 24 -51 44 -55 44 -3 0 -19 10 -35 23 -60 50 -130 58 -400 43
-163 -9 -163 -9 -163 13 0 11 3 21 8 21 4 0 16 16 26 35 11 19 23 35 28 35 4
0 8 8 8 18 0 11 9 27 20 37 11 10 20 23 20 30 0 6 13 24 29 39 15 15 41 53 56
84 33 66 80 127 148 192 26 26 47 51 47 56 0 5 21 33 46 61 25 29 69 100 99
159 30 58 58 111 63 117 5 7 15 36 21 65 13 60 58 162 72 162 5 0 9 100 9 243
l0 242 -38 46 c-29 35 -41 63 -52 113 -8 37 -17 69 -22 72 -4 3 -8 20 -8 38 0
20 -11 48 -28 72 -33 45 -92 104 -104 104 -4 0 -8 7 -8 15 0 8 -9 24 -20 35
-11 11 -26 36 -35 56 -8 21 -24 44 -35 51 -11 8 -18 18 -15 23 3 5 -4 26 -15
47 -11 21 -20 46 -20 56 0 10 -9 30 -20 44 -11 14 -18 29 -15 33 2 4 -7 18
-20 30 -14 13 -25 29 -25 36 0 6 -29 42 -65 79 -36 36 -65 72 -65 78 0 7 -23
32 -50 56 -28 25 -50 50 -50 57 0 6 -6 17 -14 23 -27 23 -39 94 -26 154 10 43
10 62 1 84 -6 16 -12 51 -12 78 -1 28 -7 64 -14 80 -7 17 -15 48 -18 70 -7 56
-11 69 -22 77 -5 4 176 8 403 8 268 0 412 3 412 10 0 7 -677 10 -2010 10
l-2010 0 0 -539z m3251 -580 c-8 -5 -10 -14 -6 -21 6 -10 10 -9 17 4 5 9 16
16 23 16 11 0 15 -13 15 -49 0 -84 -8 -107 -45 -121 -18 -7 -39 -24 -46 -37
-7 -12 -17 -23 -24 -23 -34 0 -46 59 -20 94 8 11 15 28 15 38 0 10 5 18 10 18
6 0 10 11 10 25 0 26 31 65 53 65 9 0 8 -3 -2 -9z m-283 -575 c13 -12 32 -39
42 -61 9 -22 27 -51 38 -63 12 -13 26 -48 32 -77 6 -29 18 -59 26 -65 10 -9
14 -33 14 -80 0 -54 -4 -70 -19 -84 -11 -10 -21 -27 -23 -39 -3 -22 -53 -44
-114 -50 -18 -3 -41 -10 -49 -17 -9 -7 -30 -13 -48 -12 -18 0 -41 -5 -52 -12
-11 -7 -51 -21 -88 -31 -37 -10 -70 -22 -72 -26 -3 -4 -14 -5 -26 -2 -11 3
-31 0 -44 -7 -16 -8 -39 -10 -72 -5 -40 6 -44 9 -26 16 12 4 34 26 47 48 14
22 39 50 56 62 16 13 30 29 30 36 0 7 11 17 23 22 20 8 24 17 25 57 0 35 6 53
20 64 19 16 27 33 36 80 19 101 31 130 52 130 20 0 30 11 32 35 1 6 -9 9 -21
8 -15 -1 -16 0 -4 3 9 3 17 11 17 17 0 7 9 18 20 25 11 7 20 19 20 27 0 10 11
15 34 15 19 0 38 5 41 10 7 12 19 6 53 -24z m303 -1290 c13 -65 10 -129 -7
-151 -13 -17 -27 -20 -95 -20 -81 0 -91 5 -94 50 0 5 -7 11 -16 13 -17 3 -29
-23 -29 -65 0 -64 -123 -86 -202 -36 -45 28 -92 89 -103 135 -9 36 16 72 68
97 37 17 52 19 122 12 44 -5 95 -15 113 -22 31 -13 35 -12 47 6 29 42 33 43
71 35 42 -10 74 2 74 27 0 30 43 -37 51 -81z m471 -433 c15 -15 28 -30 28 -34
0 -15 -73 -22 -105 -10 -17 6 -50 12 -74 13 -45 1 -61 12 -33 22 9 3 28 13 42
21 14 8 45 15 69 15 35 0 51 -6 73 -27z m-2 -109 c0 -9 -5 -14 -12 -12 -18 6
-21 28 -4 28 9 0 16 -7 16 -16z m15 -114 c-3 -5 -15 -10 -26 -10 -10 0 -19 5
-19 10 0 6 12 10 26 10 14 0 23 -4 19 -10z m77 -123 c9 -7 18 -24 20 -37 3
-22 -1 -25 -27 -25 -16 -1 -65 -10 -108 -20 -68 -16 -80 -17 -87 -4 -7 10 -4
15 13 19 16 4 18 8 8 14 -9 6 -2 15 28 31 60 34 124 44 153 22z m-622 -107 c0
-5 -5 -10 -11 -10 -5 0 -7 5 -4 10 3 6 8 10 11 10 2 0 4 -4 4 -10z m65 -70
c14 -21 30 -30 62 -35 49 -7 70 -3 131 28 37 18 45 19 53 6 25 -40 6 -48 -138
-55 -71 -4 -103 -2 -103 5 0 6 -6 11 -12 11 -22 0 -36 14 -43 40 -9 37 25 37
50 0z m587 -15 l17 -45 -86 0 -87 0 40 39 c67 66 94 67 116 6z m98 -35 c0 -5
-7 -10 -16 -10 -8 0 -12 5 -9 10 3 6 10 10 16 10 5 0 9 -4 9 -10z"/>
<path d="M2528 2913 c7 -3 16 -2 19 1 4 3 -2 6 -13 5 -11 0 -14 -3 -6 -6z"/>
<path d="M1604 2778 c3 -10 1 -20 -4 -23 -5 -3 -11 3 -13 12 -3 10 -5 2 -4
-17 1 -19 5 -34 10 -32 4 1 30 2 57 2 28 0 50 5 50 10 0 6 -11 10 -25 10 -15
0 -36 11 -51 28 -16 17 -24 21 -20 10z"/>
<path d="M2000 2750 c0 -5 16 -10 35 -10 20 0 35 -5 35 -12 0 -6 2 -9 5 -6 3
3 3 13 -1 22 -7 18 -74 23 -74 6z"/>
<path d="M1760 2729 c0 -5 5 -7 10 -4 6 3 10 8 10 11 0 2 -4 4 -10 4 -5 0 -10
-5 -10 -11z"/>
<path d="M0 2170 l0 -250 25 0 c14 0 42 9 62 20 21 11 44 20 51 20 7 0 12 6
11 13 -1 6 3 24 11 39 17 36 6 76 -22 80 -12 2 -27 13 -33 25 -6 12 -25 36
-42 53 -25 25 -31 39 -28 67 1 19 7 39 14 46 6 6 11 32 11 59 0 43 -3 49 -30
63 l-30 16 0 -251z"/>
<path d="M160 1815 c0 -17 2 -18 24 -9 23 9 20 24 -4 24 -11 0 -20 -7 -20 -15z"/>
<path d="M1298 1693 c12 -2 32 -2 45 0 12 2 2 4 -23 4 -25 0 -35 -2 -22 -4z"/>
<path d="M640 1400 c0 -16 7 -20 30 -20 17 0 30 2 30 5 0 2 -13 11 -30 20 -29
15 -30 15 -30 -5z"/>
</g>
</svg>
